<?xml version="1.0" encoding="UTF-8"?>
<svg width="88px" height="70px" viewBox="0 0 88 70" version="1.1" xmlns="http://www.w3.org/2000/svg" xmlns:xlink="http://www.w3.org/1999/xlink">
    <!-- Generator: Sketch 46.1 (44463) - http://www.bohemiancoding.com/sketch -->
    <title>alerts</title>
    <desc>Created with Sketch.</desc>
    <defs>
        <linearGradient x1="50%" y1="0%" x2="50%" y2="100%" id="linearGradient-1">
            <stop stop-color="#FFA12F" offset="0%"></stop>
            <stop stop-color="#FFD82D" offset="100%"></stop>
        </linearGradient>
    </defs>
    <g id="Salesy" stroke="none" stroke-width="1" fill="none" fill-rule="evenodd">
        <g id="oss-v5" transform="translate(-355.000000, -1043.000000)" fill="url(#linearGradient-1)">
            <g id="alerts" transform="translate(355.000000, 1043.000000)">
                <path d="M73.4872888,31.221453 C73.4872888,24.7885586 69.0168743,19.3813264 62.996139,17.8420952 L62.996139,3.55070977 C62.996139,2.20775637 62.2082956,0.985816345 60.9847509,0.420595297 C59.7492692,-0.150528843 58.3033974,0.0339427784 57.2604002,0.892842648 L37.2509678,17.3860814 L10.5374058,17.3860814 C4.75093457,17.3860814 0.0462559584,22.0391936 0.0462559584,27.7622411 L0.0462559584,34.6806648 C0.0462559584,40.4051882 4.75093457,45.0568246 10.5374058,45.0568246 L14.8809895,45.0568246 L17.5563744,66.2371183 C17.7772093,67.9726273 19.2633685,69.2698318 21.0300477,69.2698318 L38.5148,69.2698318 C39.6935809,69.2698318 40.7888026,68.6869014 41.436386,67.7128913 C42.0824773,66.7447842 42.1928947,65.5169411 41.7273509,64.4440541 L33.3281641,45.0568246 L37.4553893,45.0568246 L57.5573336,58.3107417 C58.6301734,59.0191127 60.0118836,59.0825709 61.1473928,58.4834071 C62.2843941,57.8783402 62.996139,56.7080522 62.996139,55.4329844 L62.996139,44.6022865 C69.0168743,43.0630553 73.4872888,37.6558231 73.4872888,31.221453 Z M24.527595,34.6806648 L17.5325004,34.6806648 C15.6031793,34.6806648 14.0349531,33.1296274 14.0349531,31.221453 C14.0349531,29.3132785 15.6031793,27.7622411 17.5325004,27.7622411 L24.527595,27.7622411 C26.455424,27.7622411 28.0236502,29.3132785 28.0236502,31.221453 C28.0236502,33.1296274 26.455424,34.6806648 24.527595,34.6806648 Z" id="Fill-1"></path>
                <path d="M79.2812207,11.6556549 C77.9174159,10.3067984 75.7016063,10.3067984 74.3378016,11.6556549 C72.9739969,13.0045114 72.9739969,15.1960343 74.3378016,16.5448908 C82.522122,24.6380298 82.522122,37.8048762 74.3378016,45.8935879 C72.9739969,47.2424444 72.9739969,49.4324915 74.3378016,50.781348 C75.019704,51.4557762 75.9179648,51.7966798 76.8102572,51.7966798 C77.7070259,51.7966798 78.5993183,51.4616793 79.2812207,50.781348 C90.1916583,39.9963991 90.1916583,22.4479827 79.2812207,11.6556549 Z" id="Fill-2"></path>
            </g>
        </g>
    </g>
</svg>