<?xml version="1.0" encoding="UTF-8"?>
<svg width="88px" height="88px" viewBox="0 0 88 88" version="1.1" xmlns="http://www.w3.org/2000/svg" xmlns:xlink="http://www.w3.org/1999/xlink">
    <!-- Generator: Sketch 46.1 (44463) - http://www.bohemiancoding.com/sketch -->
    <title>data</title>
    <desc>Created with Sketch.</desc>
    <defs>
        <linearGradient x1="50%" y1="0%" x2="50%" y2="100%" id="linearGradient-1">
            <stop stop-color="#FFA12F" offset="0%"></stop>
            <stop stop-color="#FFD82D" offset="100%"></stop>
        </linearGradient>
    </defs>
    <g id="Salesy" stroke="none" stroke-width="1" fill="none" fill-rule="evenodd">
        <g id="oss-v5" transform="translate(-997.000000, -1025.000000)" fill="url(#linearGradient-1)">
            <g id="data" transform="translate(997.000000, 1025.000000)">
                <path d="M49.3439701,60.3079973 C49.3439701,66.3619555 38.2957303,71.2743636 24.6719851,71.2743636 C11.0470702,71.2743636 0,66.3619555 0,60.3079973 C0,54.2552087 11.0470702,49.3439701 24.6719851,49.3439701 C38.2957303,49.3439701 49.3439701,54.2552087 49.3439701,60.3079973" id="Fill-1"></path>
                <path d="M24.6719851,82.2383907 C13.1898159,82.2383907 3.62348581,78.7388847 0.872537255,74.0147856 C0.356734401,74.9013583 0,75.8019664 0,76.7563772 C0,82.8196924 11.0423917,87.7215739 24.6719851,87.7215739 C38.3004088,87.7215739 49.3439701,82.8196924 49.3439701,76.7563772 C49.3439701,75.8019664 48.9825572,74.9013583 48.4702633,74.0147856 C45.7158058,78.7388847 36.1529847,82.2383907 24.6719851,82.2383907 Z" id="Fill-2"></path>
                <path d="M63.0495888,76.7563772 C60.1582858,76.7563772 54.8259837,76.5329796 54.8259837,76.1259515 L54.8259837,81.5763852 C54.8259837,81.9834134 60.1489288,82.2383907 63.0495888,82.2383907 C76.6791822,82.2383907 87.7215739,77.3365092 87.7215739,71.2743636 C87.7215739,70.3187833 87.360161,69.4193447 86.8490367,68.532772 C84.0980881,73.2568712 74.5317581,76.7563772 63.0495888,76.7563772 Z" id="Fill-3"></path>
                <path d="M63.0495888,65.7911804 C76.6791822,65.7911804 87.7215739,60.8892989 87.7215739,54.8259837 C87.7215739,48.776704 76.6791822,43.860787 63.0495888,43.860787 C55.4610879,43.860787 48.7626685,45.4140436 44.2397442,47.8129363 C50.7089178,50.8328976 54.8259837,55.3102068 54.8259837,60.3079973 C54.8259837,61.9255831 54.3826973,63.4788397 53.5873551,64.9549014 C56.5032202,65.4940967 59.6962855,65.7911804 63.0495888,65.7911804 Z" id="Fill-4"></path>
                <polygon id="Fill-5" points="38.3776038 32.8955902 49.3439701 32.8955902 49.3439701 16.4472103 60.3079973 16.4472103 43.860787 0 27.4135767 16.4472103 38.3776038 16.4472103"></polygon>
            </g>
        </g>
    </g>
</svg>