<?xml version="1.0" encoding="UTF-8"?>
<svg width="88px" height="77px" viewBox="0 0 88 77" version="1.1" xmlns="http://www.w3.org/2000/svg" xmlns:xlink="http://www.w3.org/1999/xlink">
    <!-- Generator: Sketch 46.1 (44463) - http://www.bohemiancoding.com/sketch -->
    <title>growth</title>
    <desc>Created with Sketch.</desc>
    <defs>
        <linearGradient x1="50%" y1="0%" x2="50%" y2="100%" id="linearGradient-1">
            <stop stop-color="#FFA12F" offset="0%"></stop>
            <stop stop-color="#FFD82D" offset="100%"></stop>
        </linearGradient>
    </defs>
    <g id="Salesy" stroke="none" stroke-width="1" fill="none" fill-rule="evenodd">
        <g id="oss-v5" transform="translate(-676.000000, -1037.000000)" fill="url(#linearGradient-1)">
            <path d="M694.129542,1080.56088 L694.129542,1080.56088 C697.243512,1080.56088 699.769896,1082.40582 699.769896,1084.67986 L699.769896,1109.293 C699.769896,1111.56531 697.243512,1113.41199 694.129542,1113.41199 L681.640355,1113.41199 C678.526384,1113.41199 676,1111.56531 676,1109.293 L676,1084.67986 C676,1082.40582 678.526384,1080.56088 681.640355,1080.56088 L694.129542,1080.56088 Z M708.096021,1070.42238 L708.096021,1109.293 C708.096021,1111.57226 710.634299,1113.41894 713.755407,1113.41199 L726.244593,1113.41199 C729.358564,1113.41199 731.884948,1111.56531 731.884948,1109.293 L731.884948,1070.42933 C731.884948,1068.15529 729.358564,1066.30861 726.244593,1066.30861 L713.755407,1066.30861 C710.641436,1066.30861 708.115052,1068.15529 708.115052,1070.42933 L708.096021,1070.42238 Z M745.870458,1113.41199 L758.359645,1113.41199 C761.473616,1113.41199 764,1111.56531 764,1109.293 L764,1041.28201 C764,1039.0097 761.473616,1037.16302 758.359645,1037.16302 L745.870458,1037.16302 C742.756488,1037.16302 740.230104,1039.0097 740.230104,1041.28201 L740.230104,1109.293 C740.230104,1111.56531 742.756488,1113.41199 745.870458,1113.41199 Z" id="growth"></path>
        </g>
    </g>
</svg>