<?xml version="1.0" encoding="UTF-8"?>
<svg width="174px" height="19px" viewBox="0 0 174 19" version="1.1" xmlns="http://www.w3.org/2000/svg" xmlns:xlink="http://www.w3.org/1999/xlink">
    <!-- Generator: Sketch 46.1 (44463) - http://www.bohemiancoding.com/sketch -->
    <title>OversoldStocks</title>
    <desc>Created with Sketch.</desc>
    <defs></defs>
    <g id="Salesy" stroke="none" stroke-width="1" fill="none" fill-rule="evenodd">
        <g id="oss-v5" transform="translate(-56.000000, -23.000000)" fill="#FFFFFF">
            <g id="Group-17" transform="translate(56.000000, 15.000000)">
                <path d="M4.68,17.504 C4.68,18.2240036 4.76399916,18.9239966 4.932,19.604 C5.10000084,20.2840034 5.36799816,20.8959973 5.736,21.44 C6.10400184,21.9840027 6.58399704,22.4199984 7.176,22.748 C7.76800296,23.0760016 8.48799576,23.24 9.336,23.24 C10.1840042,23.24 10.903997,23.0760016 11.496,22.748 C12.088003,22.4199984 12.5679982,21.9840027 12.936,21.44 C13.3040018,20.8959973 13.5719992,20.2840034 13.74,19.604 C13.9080008,18.9239966 13.992,18.2240036 13.992,17.504 C13.992,16.7519962 13.9080008,16.0240035 13.74,15.32 C13.5719992,14.6159965 13.3040018,13.9880028 12.936,13.436 C12.5679982,12.8839972 12.088003,12.4440016 11.496,12.116 C10.903997,11.7879984 10.1840042,11.624 9.336,11.624 C8.48799576,11.624 7.76800296,11.7879984 7.176,12.116 C6.58399704,12.4440016 6.10400184,12.8839972 5.736,13.436 C5.36799816,13.9880028 5.10000084,14.6159965 4.932,15.32 C4.76399916,16.0240035 4.68,16.7519962 4.68,17.504 Z M0.912,17.504 C0.912,16.2239936 1.10399808,15.0360055 1.488,13.94 C1.87200192,12.8439945 2.4239964,11.8880041 3.144,11.072 C3.8640036,10.2559959 4.74799476,9.61600232 5.796,9.152 C6.84400524,8.68799768 8.02399344,8.456 9.336,8.456 C10.6640066,8.456 11.8479948,8.68799768 12.888,9.152 C13.9280052,9.61600232 14.8079964,10.2559959 15.528,11.072 C16.2480036,11.8880041 16.7999981,12.8439945 17.184,13.94 C17.5680019,15.0360055 17.76,16.2239936 17.76,17.504 C17.76,18.7520062 17.5680019,19.9159946 17.184,20.996 C16.7999981,22.0760054 16.2480036,23.015996 15.528,23.816 C14.8079964,24.616004 13.9280052,25.2439977 12.888,25.7 C11.8479948,26.1560023 10.6640066,26.384 9.336,26.384 C8.02399344,26.384 6.84400524,26.1560023 5.796,25.7 C4.74799476,25.2439977 3.8640036,24.616004 3.144,23.816 C2.4239964,23.015996 1.87200192,22.0760054 1.488,20.996 C1.10399808,19.9159946 0.912,18.7520062 0.912,17.504 Z M26.832,26 L31.032,13.592 L27.648,13.592 L25.032,22.064 L24.984,22.064 L22.368,13.592 L18.792,13.592 L23.04,26 L26.832,26 Z M40.8,18.464 C40.6399992,17.5999957 40.356002,16.9440022 39.948,16.496 C39.539998,16.0479978 38.9200042,15.824 38.088,15.824 C37.5439973,15.824 37.0920018,15.9159991 36.732,16.1 C36.3719982,16.2840009 36.0840011,16.5119986 35.868,16.784 C35.6519989,17.0560014 35.5000004,17.3439985 35.412,17.648 C35.3239996,17.9520015 35.2720001,18.2239988 35.256,18.464 L40.8,18.464 Z M35.256,20.624 C35.3040002,21.7280055 35.5839974,22.5279975 36.096,23.024 C36.6080026,23.5200025 37.3439952,23.768 38.304,23.768 C38.9920034,23.768 39.5839975,23.5960017 40.08,23.252 C40.5760025,22.9079983 40.8799994,22.5440019 40.992,22.16 L43.992,22.16 C43.5119976,23.6480074 42.776005,24.7119968 41.784,25.352 C40.791995,25.9920032 39.592007,26.312 38.184,26.312 C37.2079951,26.312 36.3280039,26.1560016 35.544,25.844 C34.7599961,25.5319984 34.0960027,25.0880029 33.552,24.512 C33.0079973,23.9359971 32.5880015,23.248004 32.292,22.448 C31.9959985,21.647996 31.848,20.7680048 31.848,19.808 C31.848,18.8799954 31.9999985,18.016004 32.304,17.216 C32.6080015,16.415996 33.0399972,15.7240029 33.6,15.14 C34.1600028,14.5559971 34.8279961,14.0960017 35.604,13.76 C36.3800039,13.4239983 37.2399953,13.256 38.184,13.256 C39.2400053,13.256 40.1599961,13.459998 40.944,13.868 C41.7280039,14.276002 42.3719975,14.8239966 42.876,15.512 C43.3800025,16.2000034 43.7439989,16.9839956 43.968,17.864 C44.1920011,18.7440044 44.2720003,19.6639952 44.208,20.624 L35.256,20.624 Z M46.224,13.592 L46.224,26 L49.632,26 L49.632,20.408 C49.632,19.8479972 49.6879994,19.3280024 49.8,18.848 C49.9120006,18.3679976 50.0999987,17.9480018 50.364,17.588 C50.6280013,17.2279982 50.9759978,16.944001 51.408,16.736 C51.8400022,16.527999 52.3679969,16.424 52.992,16.424 C53.200001,16.424 53.4159989,16.4359999 53.64,16.46 C53.8640011,16.4840001 54.0559992,16.5119998 54.216,16.544 L54.216,13.376 C53.9439986,13.2959996 53.6960011,13.256 53.472,13.256 C53.0399978,13.256 52.624002,13.3199994 52.224,13.448 C51.823998,13.5760006 51.4480018,13.7559988 51.096,13.988 C50.7439982,14.2200012 50.4320014,14.4999984 50.16,14.828 C49.8879986,15.1560016 49.6720008,15.5119981 49.512,15.896 L49.464,15.896 L49.464,13.592 L46.224,13.592 Z M58.2,21.968 L54.96,21.968 C54.9920002,22.8000042 55.1799983,23.4919972 55.524,24.044 C55.8680017,24.5960028 56.3079973,25.0399983 56.844,25.376 C57.3800027,25.7120017 57.9919966,25.9519993 58.68,26.096 C59.3680034,26.2400007 60.0719964,26.312 60.792,26.312 C61.4960035,26.312 62.1879966,26.2440007 62.868,26.108 C63.5480034,25.9719993 64.1519974,25.7360017 64.68,25.4 C65.2080026,25.0639983 65.6359984,24.6200028 65.964,24.068 C66.2920016,23.5159972 66.456,22.8320041 66.456,22.016 C66.456,21.4399971 66.3440011,20.956002 66.12,20.564 C65.8959989,20.171998 65.6000018,19.8440013 65.232,19.58 C64.8639982,19.3159987 64.4440024,19.1040008 63.972,18.944 C63.4999976,18.7839992 63.0160025,18.6480006 62.52,18.536 C62.0399976,18.4239994 61.5680023,18.3200005 61.104,18.224 C60.6399977,18.1279995 60.2280018,18.0200006 59.868,17.9 C59.5079982,17.7799994 59.2160011,17.624001 58.992,17.432 C58.7679989,17.239999 58.656,16.9920015 58.656,16.688 C58.656,16.4319987 58.7199994,16.2280008 58.848,16.076 C58.9760006,15.9239992 59.1319991,15.8080004 59.316,15.728 C59.5000009,15.6479996 59.7039989,15.5960001 59.928,15.572 C60.1520011,15.5479999 60.359999,15.536 60.552,15.536 C61.160003,15.536 61.6879978,15.6519988 62.136,15.884 C62.5840022,16.1160012 62.8319998,16.5599967 62.88,17.216 L66.12,17.216 C66.0559997,16.4479962 65.8600016,15.8120025 65.532,15.308 C65.2039984,14.8039975 64.7920025,14.4000015 64.296,14.096 C63.7999975,13.7919985 63.2360032,13.5760006 62.604,13.448 C61.9719968,13.3199994 61.3200034,13.256 60.648,13.256 C59.9759966,13.256 59.3200032,13.3159994 58.68,13.436 C58.0399968,13.5560006 57.4640026,13.7639985 56.952,14.06 C56.4399974,14.3560015 56.0280016,14.7599974 55.716,15.272 C55.4039984,15.7840026 55.248,16.439996 55.248,17.24 C55.248,17.7840027 55.3599989,18.2439981 55.584,18.62 C55.8080011,18.9960019 56.1039982,19.3079988 56.472,19.556 C56.8400018,19.8040012 57.2599976,20.0039992 57.732,20.156 C58.2040024,20.3080008 58.6879975,20.4399994 59.184,20.552 C60.4000061,20.8080013 61.3479966,21.0639987 62.028,21.32 C62.7080034,21.5760013 63.048,21.9599974 63.048,22.472 C63.048,22.7760015 62.9760007,23.027999 62.832,23.228 C62.6879993,23.428001 62.5080011,23.5879994 62.292,23.708 C62.0759989,23.8280006 61.8360013,23.9159997 61.572,23.972 C61.3079987,24.0280003 61.0560012,24.056 60.816,24.056 C60.4799983,24.056 60.1560016,24.0160004 59.844,23.936 C59.5319984,23.8559996 59.2560012,23.7320008 59.016,23.564 C58.7759988,23.3959992 58.5800008,23.1800013 58.428,22.916 C58.2759992,22.6519987 58.2,22.3360018 58.2,21.968 Z M71.472,19.808 C71.472,20.3040025 71.5199995,20.7879976 71.616,21.26 C71.7120005,21.7320024 71.8759988,22.1559981 72.108,22.532 C72.3400012,22.9080019 72.6479981,23.2079989 73.032,23.432 C73.4160019,23.6560011 73.8959971,23.768 74.472,23.768 C75.0480029,23.768 75.531998,23.6560011 75.924,23.432 C76.316002,23.2079989 76.6279988,22.9080019 76.86,22.532 C77.0920012,22.1559981 77.2559995,21.7320024 77.352,21.26 C77.4480005,20.7879976 77.496,20.3040025 77.496,19.808 C77.496,19.3119975 77.4480005,18.8240024 77.352,18.344 C77.2559995,17.8639976 77.0920012,17.4400018 76.86,17.072 C76.6279988,16.7039982 76.316002,16.4040012 75.924,16.172 C75.531998,15.9399988 75.0480029,15.824 74.472,15.824 C73.8959971,15.824 73.4160019,15.9399988 73.032,16.172 C72.6479981,16.4040012 72.3400012,16.7039982 72.108,17.072 C71.8759988,17.4400018 71.7120005,17.8639976 71.616,18.344 C71.5199995,18.8240024 71.472,19.3119975 71.472,19.808 Z M68.064,19.808 C68.064,18.815995 68.2159985,17.916004 68.52,17.108 C68.8240015,16.299996 69.2559972,15.6120028 69.816,15.044 C70.3760028,14.4759972 71.0479961,14.0360016 71.832,13.724 C72.6160039,13.4119984 73.4959951,13.256 74.472,13.256 C75.4480049,13.256 76.331996,13.4119984 77.124,13.724 C77.916004,14.0360016 78.5919972,14.4759972 79.152,15.044 C79.7120028,15.6120028 80.1439985,16.299996 80.448,17.108 C80.7520015,17.916004 80.904,18.815995 80.904,19.808 C80.904,20.800005 80.7520015,21.695996 80.448,22.496 C80.1439985,23.296004 79.7120028,23.9799972 79.152,24.548 C78.5919972,25.1160028 77.916004,25.5519985 77.124,25.856 C76.331996,26.1600015 75.4480049,26.312 74.472,26.312 C73.4959951,26.312 72.6160039,26.1600015 71.832,25.856 C71.0479961,25.5519985 70.3760028,25.1160028 69.816,24.548 C69.2559972,23.9799972 68.8240015,23.296004 68.52,22.496 C68.2159985,21.695996 68.064,20.800005 68.064,19.808 Z M83.208,8.864 L83.208,26 L86.616,26 L86.616,8.864 L83.208,8.864 Z M98.112,19.76 C98.112,19.2479974 98.0640005,18.7560024 97.968,18.284 C97.8719995,17.8119976 97.7080012,17.3960018 97.476,17.036 C97.2439988,16.6759982 96.9440018,16.3840011 96.576,16.16 C96.2079982,15.9359989 95.7440028,15.824 95.184,15.824 C94.6239972,15.824 94.1520019,15.9359989 93.768,16.16 C93.3839981,16.3840011 93.0760012,16.6799982 92.844,17.048 C92.6119988,17.4160018 92.4440005,17.8359976 92.34,18.308 C92.2359995,18.7800024 92.184,19.2719974 92.184,19.784 C92.184,20.2640024 92.2399994,20.7439976 92.352,21.224 C92.4640006,21.7040024 92.6439988,22.1319981 92.892,22.508 C93.1400012,22.8840019 93.4519981,23.1879988 93.828,23.42 C94.2040019,23.6520012 94.6559974,23.768 95.184,23.768 C95.7440028,23.768 96.2119981,23.6560011 96.588,23.432 C96.9640019,23.2079989 97.2639989,22.9080019 97.488,22.532 C97.7120011,22.1559981 97.8719995,21.7280024 97.968,21.248 C98.0640005,20.7679976 98.112,20.2720026 98.112,19.76 Z M98.16,24.416 L98.112,24.416 C97.711998,25.0880034 97.1880032,25.5719985 96.54,25.868 C95.8919968,26.1640015 95.1600041,26.312 94.344,26.312 C93.4159954,26.312 92.6000035,26.1320018 91.896,25.772 C91.1919965,25.4119982 90.6120023,24.9240031 90.156,24.308 C89.6999977,23.6919969 89.3560012,22.984004 89.124,22.184 C88.8919988,21.383996 88.776,20.5520043 88.776,19.688 C88.776,18.8559958 88.8919988,18.0520039 89.124,17.276 C89.3560012,16.4999961 89.6999977,15.816003 90.156,15.224 C90.6120023,14.631997 91.1839966,14.1560018 91.872,13.796 C92.5600034,13.4359982 93.3599954,13.256 94.272,13.256 C95.0080037,13.256 95.7079967,13.4119984 96.372,13.724 C97.0360033,14.0360016 97.5599981,14.495997 97.944,15.104 L97.992,15.104 L97.992,8.864 L101.4,8.864 L101.4,26 L98.16,26 L98.16,24.416 Z M105.168,20.36 L103.536,20.36 C103.488,21.4160053 103.627998,22.3199962 103.956,23.072 C104.284002,23.8240038 104.751997,24.4399976 105.36,24.92 C105.968003,25.4000024 106.703996,25.7559988 107.568,25.988 C108.432004,26.2200012 109.367995,26.336 110.376,26.336 C111.384005,26.336 112.247996,26.2440009 112.968,26.06 C113.688004,25.8759991 114.291998,25.6360015 114.78,25.34 C115.268002,25.0439985 115.651999,24.7120018 115.932,24.344 C116.212001,23.9759982 116.427999,23.6120018 116.58,23.252 C116.732001,22.8919982 116.828,22.5520016 116.868,22.232 C116.908,21.9119984 116.928,21.656001 116.928,21.464 C116.928,20.7599965 116.812001,20.1600025 116.58,19.664 C116.347999,19.1679975 116.028002,18.7480017 115.62,18.404 C115.211998,18.0599983 114.740003,17.7720012 114.204,17.54 C113.667997,17.3079988 113.096003,17.1120008 112.488,16.952 L108.312,15.92 C107.959998,15.8399996 107.628002,15.7360006 107.316,15.608 C107.003998,15.4799994 106.728001,15.312001 106.488,15.104 C106.247999,14.895999 106.060001,14.6440015 105.924,14.348 C105.787999,14.0519985 105.72,13.704002 105.72,13.304 C105.72,12.6639968 105.839999,12.1280022 106.08,11.696 C106.320001,11.2639978 106.635998,10.9160013 107.028,10.652 C107.420002,10.3879987 107.875997,10.1960006 108.396,10.076 C108.916003,9.9559994 109.455997,9.896 110.016,9.896 C110.624003,9.896 111.203997,9.97999916 111.756,10.148 C112.308003,10.3160008 112.795998,10.5639984 113.22,10.892 C113.644002,11.2200016 113.987999,11.6279976 114.252,12.116 C114.516001,12.6040024 114.664,13.1759967 114.696,13.832 L116.328,13.832 C116.328,12.9519956 116.156002,12.1800033 115.812,11.516 C115.467998,10.8519967 115.008003,10.2960022 114.432,9.848 C113.855997,9.39999776 113.184004,9.06400112 112.416,8.84 C111.647996,8.61599888 110.840004,8.504 109.992,8.504 C108.791994,8.504 107.808004,8.67599828 107.04,9.02 C106.271996,9.36400172 105.668002,9.78399752 105.228,10.28 C104.787998,10.7760025 104.488001,11.3039972 104.328,11.864 C104.167999,12.4240028 104.088,12.9119979 104.088,13.328 C104.088,14.0000034 104.195999,14.5679977 104.412,15.032 C104.628001,15.4960023 104.911998,15.8879984 105.264,16.208 C105.616002,16.5280016 106.027998,16.783999 106.5,16.976 C106.972002,17.168001 107.455998,17.3279994 107.952,17.456 L111.768,18.392 C112.168002,18.4880005 112.575998,18.6119992 112.992,18.764 C113.408002,18.9160008 113.787998,19.1119988 114.132,19.352 C114.476002,19.5920012 114.755999,19.8879982 114.972,20.24 C115.188001,20.5920018 115.296,21.0079976 115.296,21.488 C115.296,22.1120031 115.144002,22.6439978 114.84,23.084 C114.535998,23.5240022 114.156002,23.8839986 113.7,24.164 C113.243998,24.4440014 112.752003,24.6479994 112.224,24.776 C111.695997,24.9040006 111.208002,24.968 110.76,24.968 C109.975996,24.968 109.240003,24.8920008 108.552,24.74 C107.863997,24.5879992 107.268003,24.3360018 106.764,23.984 C106.259997,23.6319982 105.864001,23.160003 105.576,22.568 C105.287999,21.975997 105.152,21.2400044 105.168,20.36 Z M121.632,13.616 L121.632,9.896 L120.12,9.896 L120.12,13.616 L117.96,13.616 L117.96,14.888 L120.12,14.888 L120.12,23.36 C120.104,24.4160053 120.295998,25.139998 120.696,25.532 C121.096002,25.924002 121.799995,26.12 122.808,26.12 C123.032001,26.12 123.255999,26.1120001 123.48,26.096 C123.704001,26.0799999 123.927999,26.072 124.152,26.072 L124.152,24.8 C123.719998,24.8480002 123.288002,24.872 122.856,24.872 C122.311997,24.8399998 121.972001,24.6840014 121.836,24.404 C121.699999,24.1239986 121.632,23.7360025 121.632,23.24 L121.632,14.888 L124.152,14.888 L124.152,13.616 L121.632,13.616 Z M131.568,14.528 C130.847996,14.528 130.216003,14.6799985 129.672,14.984 C129.127997,15.2880015 128.676002,15.6879975 128.316,16.184 C127.955998,16.6800025 127.684001,17.2439968 127.5,17.876 C127.315999,18.5080032 127.224,19.1519967 127.224,19.808 C127.224,20.4640033 127.315999,21.1079968 127.5,21.74 C127.684001,22.3720032 127.955998,22.9359975 128.316,23.432 C128.676002,23.9280025 129.127997,24.3279985 129.672,24.632 C130.216003,24.9360015 130.847996,25.088 131.568,25.088 C132.288004,25.088 132.919997,24.9360015 133.464,24.632 C134.008003,24.3279985 134.459998,23.9280025 134.82,23.432 C135.180002,22.9359975 135.451999,22.3720032 135.636,21.74 C135.820001,21.1079968 135.912,20.4640033 135.912,19.808 C135.912,19.1519967 135.820001,18.5080032 135.636,17.876 C135.451999,17.2439968 135.180002,16.6800025 134.82,16.184 C134.459998,15.6879975 134.008003,15.2880015 133.464,14.984 C132.919997,14.6799985 132.288004,14.528 131.568,14.528 Z M131.568,13.256 C132.512005,13.256 133.347996,13.4319982 134.076,13.784 C134.804004,14.1360018 135.415998,14.607997 135.912,15.2 C136.408002,15.792003 136.783999,16.483996 137.04,17.276 C137.296001,18.068004 137.424,18.9119955 137.424,19.808 C137.424,20.7040045 137.296001,21.547996 137.04,22.34 C136.783999,23.132004 136.408002,23.823997 135.912,24.416 C135.415998,25.008003 134.804004,25.4759983 134.076,25.82 C133.347996,26.1640017 132.512005,26.336 131.568,26.336 C130.623995,26.336 129.788004,26.1640017 129.06,25.82 C128.331996,25.4759983 127.720002,25.008003 127.224,24.416 C126.727998,23.823997 126.352001,23.132004 126.096,22.34 C125.839999,21.547996 125.712,20.7040045 125.712,19.808 C125.712,18.9119955 125.839999,18.068004 126.096,17.276 C126.352001,16.483996 126.727998,15.792003 127.224,15.2 C127.720002,14.607997 128.331996,14.1360018 129.06,13.784 C129.788004,13.4319982 130.623995,13.256 131.568,13.256 Z M148.416,17.504 L149.928,17.504 C149.751999,16.0799929 149.204005,15.0160035 148.284,14.312 C147.363995,13.6079965 146.240007,13.256 144.912,13.256 C143.967995,13.256 143.132004,13.4319982 142.404,13.784 C141.675996,14.1360018 141.064002,14.607997 140.568,15.2 C140.071998,15.792003 139.696001,16.483996 139.44,17.276 C139.183999,18.068004 139.056,18.9119955 139.056,19.808 C139.056,20.7040045 139.183999,21.547996 139.44,22.34 C139.696001,23.132004 140.071998,23.823997 140.568,24.416 C141.064002,25.008003 141.675996,25.4759983 142.404,25.82 C143.132004,26.1640017 143.967995,26.336 144.912,26.336 C146.320007,26.336 147.471996,25.9160042 148.368,25.076 C149.264004,24.2359958 149.815999,23.0640075 150.024,21.56 L148.512,21.56 C148.464,22.0720026 148.336001,22.5439978 148.128,22.976 C147.919999,23.4080022 147.656002,23.7799984 147.336,24.092 C147.015998,24.4040016 146.648002,24.6479991 146.232,24.824 C145.815998,25.0000009 145.376002,25.088 144.912,25.088 C144.191996,25.088 143.560003,24.9360015 143.016,24.632 C142.471997,24.3279985 142.020002,23.9280025 141.66,23.432 C141.299998,22.9359975 141.028001,22.3720032 140.844,21.74 C140.659999,21.1079968 140.568,20.4640033 140.568,19.808 C140.568,19.1519967 140.659999,18.5080032 140.844,17.876 C141.028001,17.2439968 141.299998,16.6800025 141.66,16.184 C142.020002,15.6879975 142.471997,15.2880015 143.016,14.984 C143.560003,14.6799985 144.191996,14.528 144.912,14.528 C145.920005,14.528 146.703997,14.7919974 147.264,15.32 C147.824003,15.8480026 148.207999,16.5759954 148.416,17.504 Z M152.136,8.864 L152.136,26 L153.648,26 L153.648,21.296 L156.096,19.256 L160.992,26 L162.888,26 L157.248,18.2 L162.528,13.616 L160.512,13.616 L153.648,19.616 L153.648,8.864 L152.136,8.864 Z M171.552,17.24 L173.064,17.24 C173.032,16.5679966 172.896001,15.9840025 172.656,15.488 C172.415999,14.9919975 172.092002,14.5760017 171.684,14.24 C171.275998,13.9039983 170.804003,13.6560008 170.268,13.496 C169.731997,13.3359992 169.152003,13.256 168.528,13.256 C167.983997,13.256 167.436003,13.3199994 166.884,13.448 C166.331997,13.5760006 165.832002,13.7759986 165.384,14.048 C164.935998,14.3200014 164.572001,14.6799978 164.292,15.128 C164.011999,15.5760022 163.872,16.1119969 163.872,16.736 C163.872,17.2640026 163.959999,17.7079982 164.136,18.068 C164.312001,18.4280018 164.555998,18.7319988 164.868,18.98 C165.180002,19.2280012 165.543998,19.4359992 165.96,19.604 C166.376002,19.7720008 166.831998,19.9199994 167.328,20.048 L169.272,20.48 C169.608002,20.5600004 169.939998,20.6559994 170.268,20.768 C170.596002,20.8800006 170.887999,21.0199992 171.144,21.188 C171.400001,21.3560008 171.603999,21.5639988 171.756,21.812 C171.908001,22.0600012 171.984,22.3679982 171.984,22.736 C171.984,23.1680022 171.876001,23.5319985 171.66,23.828 C171.443999,24.1240015 171.168002,24.367999 170.832,24.56 C170.495998,24.752001 170.132002,24.8879996 169.74,24.968 C169.347998,25.0480004 168.968002,25.088 168.6,25.088 C167.591995,25.088 166.748003,24.8280026 166.068,24.308 C165.387997,23.7879974 165.016,23.0160051 164.952,21.992 L163.44,21.992 C163.568001,23.5120076 164.083995,24.6159966 164.988,25.304 C165.892005,25.9920034 167.071993,26.336 168.528,26.336 C169.104003,26.336 169.687997,26.2720006 170.28,26.144 C170.872003,26.0159994 171.403998,25.8040015 171.876,25.508 C172.348002,25.2119985 172.735998,24.8280024 173.04,24.356 C173.344002,23.8839976 173.496,23.3120034 173.496,22.64 C173.496,22.0959973 173.392001,21.624002 173.184,21.224 C172.975999,20.823998 172.708002,20.4880014 172.38,20.216 C172.051998,19.9439986 171.676002,19.7240008 171.252,19.556 C170.827998,19.3879992 170.400002,19.2720003 169.968,19.208 L167.952,18.752 C167.695999,18.6879997 167.416002,18.6040005 167.112,18.5 C166.807998,18.3959995 166.528001,18.2640008 166.272,18.104 C166.015999,17.9439992 165.804001,17.7480012 165.636,17.516 C165.467999,17.2839988 165.384,17.0000017 165.384,16.664 C165.384,16.263998 165.471999,15.9280014 165.648,15.656 C165.824001,15.3839986 166.055999,15.1640008 166.344,14.996 C166.632001,14.8279992 166.947998,14.7080004 167.292,14.636 C167.636002,14.5639996 167.975998,14.528 168.312,14.528 C168.744002,14.528 169.151998,14.5799995 169.536,14.684 C169.920002,14.7880005 170.259999,14.9519989 170.556,15.176 C170.852001,15.4000011 171.087999,15.6839983 171.264,16.028 C171.440001,16.3720017 171.536,16.7759977 171.552,17.24 Z" id="OversoldStocks"></path>
            </g>
        </g>
    </g>
</svg>