<?xml version="1.0" encoding="UTF-8"?>
<svg width="118px" height="57px" viewBox="0 0 118 57" version="1.1" xmlns="http://www.w3.org/2000/svg" xmlns:xlink="http://www.w3.org/1999/xlink">
    <!-- Generator: Sketch 46.1 (44463) - http://www.bohemiancoding.com/sketch -->
    <title>see-the-platform</title>
    <desc>Created with Sketch.</desc>
    <defs></defs>
    <g id="Salesy" stroke="none" stroke-width="1" fill="none" fill-rule="evenodd">
        <g id="oss-v5" transform="translate(-661.000000, -674.000000)" fill="#FFFFFF">
            <g id="Group-17" transform="translate(56.000000, 18.000000)">
                <g id="Group-12" transform="translate(605.000000, 656.000000)">
                    <g id="see-the-platform">
                        <path d="M7.584,3.92 L9.024,3.92 C9.00266656,3.29066352 8.88266776,2.7493356 8.664,2.296 C8.44533224,1.8426644 8.14666856,1.46666816 7.768,1.168 C7.38933144,0.86933184 6.94933584,0.65066736 6.448,0.512 C5.94666416,0.37333264 5.4026696,0.304 4.816,0.304 C4.29333072,0.304 3.78400248,0.370666 3.288,0.504 C2.79199752,0.637334 2.34933528,0.83999864 1.96,1.112 C1.57066472,1.38400136 1.25866784,1.73066456 1.024,2.152 C0.78933216,2.57333544 0.672,3.07199712 0.672,3.648 C0.672,4.17066928 0.77599896,4.6053316 0.984,4.952 C1.19200104,5.2986684 1.4693316,5.58133224 1.816,5.8 C2.1626684,6.01866776 2.55466448,6.194666 2.992,6.328 C3.42933552,6.461334 3.8746644,6.57866616 4.328,6.68 C4.7813356,6.78133384 5.22666448,6.87999952 5.664,6.976 C6.10133552,7.07200048 6.4933316,7.19733256 6.84,7.352 C7.1866684,7.50666744 7.46399896,7.70666544 7.672,7.952 C7.88000104,8.19733456 7.984,8.51733136 7.984,8.912 C7.984,9.32800208 7.89866752,9.669332 7.728,9.936 C7.55733248,10.202668 7.33333472,10.4133326 7.056,10.568 C6.77866528,10.7226674 6.4666684,10.8319997 6.12,10.896 C5.7733316,10.9600003 5.42933504,10.992 5.088,10.992 C4.6613312,10.992 4.24533536,10.9386672 3.84,10.832 C3.43466464,10.7253328 3.08000152,10.5600011 2.776,10.336 C2.47199848,10.1119989 2.2266676,9.8266684 2.04,9.48 C1.8533324,9.1333316 1.76,8.7200024 1.76,8.24 L0.32,8.24 C0.32,8.9333368 0.44533208,9.5333308 0.696,10.04 C0.94666792,10.5466692 1.28799784,10.962665 1.72,11.288 C2.15200216,11.613335 2.65333048,11.8559992 3.224,12.016 C3.79466952,12.1760008 4.3999968,12.256 5.04,12.256 C5.56266928,12.256 6.08799736,12.1946673 6.616,12.072 C7.14400264,11.9493327 7.6213312,11.7520014 8.048,11.48 C8.4746688,11.2079986 8.82399864,10.8560022 9.096,10.424 C9.36800136,9.99199784 9.504,9.47200304 9.504,8.864 C9.504,8.29866384 9.40000104,7.8293352 9.192,7.456 C8.98399896,7.0826648 8.7066684,6.77333456 8.36,6.528 C8.0133316,6.28266544 7.62133552,6.08800072 7.184,5.944 C6.74666448,5.79999928 6.3013356,5.6746672 5.848,5.568 C5.3946644,5.4613328 4.94933552,5.36266712 4.512,5.272 C4.07466448,5.18133288 3.6826684,5.06666736 3.336,4.928 C2.9893316,4.78933264 2.71200104,4.61066776 2.504,4.392 C2.29599896,4.17333224 2.192,3.88800176 2.192,3.536 C2.192,3.1626648 2.26399928,2.85066792 2.408,2.6 C2.55200072,2.34933208 2.7439988,2.14933408 2.984,2 C3.2240012,1.85066592 3.49866512,1.74400032 3.808,1.68 C4.11733488,1.61599968 4.4319984,1.584 4.752,1.584 C5.54133728,1.584 6.1893308,1.76799816 6.696,2.136 C7.2026692,2.50400184 7.49866624,3.09866256 7.584,3.92 Z M16.864,7.072 C16.8426666,6.7519984 16.7706673,6.44800144 16.648,6.16 C16.5253327,5.87199856 16.360001,5.62400104 16.152,5.416 C15.943999,5.20799896 15.6986681,5.04266728 15.416,4.92 C15.1333319,4.79733272 14.821335,4.736 14.48,4.736 C14.1279982,4.736 13.8106681,4.79733272 13.528,4.92 C13.2453319,5.04266728 13.0026677,5.2106656 12.8,5.424 C12.5973323,5.6373344 12.4373339,5.88533192 12.32,6.168 C12.2026661,6.45066808 12.1333334,6.7519984 12.112,7.072 L16.864,7.072 Z M18.176,9.376 C17.9946658,10.3040046 17.5946698,11.0026643 16.976,11.472 C16.3573302,11.9413357 15.5786714,12.176 14.64,12.176 C13.9786634,12.176 13.4053358,12.0693344 12.92,11.856 C12.4346642,11.6426656 12.0266683,11.3440019 11.696,10.96 C11.3653317,10.5759981 11.1173342,10.117336 10.952,9.584 C10.7866658,9.050664 10.6933334,8.46933648 10.672,7.84 C10.672,7.21066352 10.767999,6.63466928 10.96,6.112 C11.152001,5.58933072 11.4213316,5.13600192 11.768,4.752 C12.1146684,4.36799808 12.525331,4.0693344 13,3.856 C13.474669,3.6426656 13.9946638,3.536 14.56,3.536 C15.2960037,3.536 15.9066642,3.68799848 16.392,3.992 C16.8773358,4.29600152 17.2666652,4.68266432 17.56,5.152 C17.8533348,5.62133568 18.0559994,6.13333056 18.168,6.688 C18.2800006,7.24266944 18.3253334,7.77066416 18.304,8.272 L12.112,8.272 C12.1013333,8.63466848 12.1439995,8.97866504 12.24,9.304 C12.3360005,9.62933496 12.4906656,9.91733208 12.704,10.168 C12.9173344,10.4186679 13.1893317,10.6186659 13.52,10.768 C13.8506683,10.9173341 14.2399978,10.992 14.688,10.992 C15.2640029,10.992 15.7359982,10.858668 16.104,10.592 C16.4720018,10.325332 16.7146661,9.92000272 16.832,9.376 L18.176,9.376 Z M25.456,7.072 C25.4346666,6.7519984 25.3626673,6.44800144 25.24,6.16 C25.1173327,5.87199856 24.952001,5.62400104 24.744,5.416 C24.535999,5.20799896 24.2906681,5.04266728 24.008,4.92 C23.7253319,4.79733272 23.413335,4.736 23.072,4.736 C22.7199982,4.736 22.4026681,4.79733272 22.12,4.92 C21.8373319,5.04266728 21.5946677,5.2106656 21.392,5.424 C21.1893323,5.6373344 21.0293339,5.88533192 20.912,6.168 C20.7946661,6.45066808 20.7253334,6.7519984 20.704,7.072 L25.456,7.072 Z M26.768,9.376 C26.5866658,10.3040046 26.1866698,11.0026643 25.568,11.472 C24.9493302,11.9413357 24.1706714,12.176 23.232,12.176 C22.5706634,12.176 21.9973358,12.0693344 21.512,11.856 C21.0266642,11.6426656 20.6186683,11.3440019 20.288,10.96 C19.9573317,10.5759981 19.7093342,10.117336 19.544,9.584 C19.3786658,9.050664 19.2853334,8.46933648 19.264,7.84 C19.264,7.21066352 19.359999,6.63466928 19.552,6.112 C19.744001,5.58933072 20.0133316,5.13600192 20.36,4.752 C20.7066684,4.36799808 21.117331,4.0693344 21.592,3.856 C22.066669,3.6426656 22.5866638,3.536 23.152,3.536 C23.8880037,3.536 24.4986642,3.68799848 24.984,3.992 C25.4693358,4.29600152 25.8586652,4.68266432 26.152,5.152 C26.4453348,5.62133568 26.6479994,6.13333056 26.76,6.688 C26.8720006,7.24266944 26.9173334,7.77066416 26.896,8.272 L20.704,8.272 C20.6933333,8.63466848 20.7359995,8.97866504 20.832,9.304 C20.9280005,9.62933496 21.0826656,9.91733208 21.296,10.168 C21.5093344,10.4186679 21.7813317,10.6186659 22.112,10.768 C22.4426683,10.9173341 22.8319978,10.992 23.28,10.992 C23.8560029,10.992 24.3279982,10.858668 24.696,10.592 C25.0640018,10.325332 25.3066661,9.92000272 25.424,9.376 L26.768,9.376 Z M34.64,3.728 L34.64,1.248 L33.28,1.248 L33.28,3.728 L31.872,3.728 L31.872,4.928 L33.28,4.928 L33.28,10.192 C33.28,10.5760019 33.317333,10.8853322 33.392,11.12 C33.466667,11.3546678 33.5813326,11.5359994 33.736,11.664 C33.8906674,11.7920006 34.0933321,11.8799998 34.344,11.928 C34.5946679,11.9760002 34.8959982,12 35.248,12 L36.288,12 L36.288,10.8 L35.664,10.8 C35.4506656,10.8 35.277334,10.7920001 35.144,10.776 C35.010666,10.7599999 34.906667,10.7253336 34.832,10.672 C34.757333,10.6186664 34.7066668,10.5440005 34.68,10.448 C34.6533332,10.3519995 34.64,10.2240008 34.64,10.064 L34.64,4.928 L36.288,4.928 L36.288,3.728 L34.64,3.728 Z M37.792,0.576 L37.792,12 L39.152,12 L39.152,7.328 C39.152,6.9546648 39.2026662,6.61066824 39.304,6.296 C39.4053338,5.98133176 39.5573323,5.70666784 39.76,5.472 C39.9626677,5.23733216 40.2159985,5.05600064 40.52,4.928 C40.8240015,4.79999936 41.1839979,4.736 41.6,4.736 C42.1226693,4.736 42.5333318,4.88533184 42.832,5.184 C43.1306682,5.48266816 43.28,5.88799744 43.28,6.4 L43.28,12 L44.64,12 L44.64,6.56 C44.64,6.11199776 44.5946671,5.70400184 44.504,5.336 C44.4133329,4.96799816 44.2560011,4.650668 44.032,4.384 C43.8079989,4.117332 43.5146685,3.90933408 43.152,3.76 C42.7893315,3.61066592 42.3360027,3.536 41.792,3.536 C41.5466654,3.536 41.2933346,3.5626664 41.032,3.616 C40.7706654,3.6693336 40.5200012,3.75199944 40.28,3.864 C40.0399988,3.97600056 39.824001,4.11999912 39.632,4.296 C39.439999,4.47200088 39.2906672,4.68799872 39.184,4.944 L39.152,4.944 L39.152,0.576 L37.792,0.576 Z M52.432,7.072 C52.4106666,6.7519984 52.3386673,6.44800144 52.216,6.16 C52.0933327,5.87199856 51.928001,5.62400104 51.72,5.416 C51.511999,5.20799896 51.2666681,5.04266728 50.984,4.92 C50.7013319,4.79733272 50.389335,4.736 50.048,4.736 C49.6959982,4.736 49.3786681,4.79733272 49.096,4.92 C48.8133319,5.04266728 48.5706677,5.2106656 48.368,5.424 C48.1653323,5.6373344 48.0053339,5.88533192 47.888,6.168 C47.7706661,6.45066808 47.7013334,6.7519984 47.68,7.072 L52.432,7.072 Z M53.744,9.376 C53.5626658,10.3040046 53.1626698,11.0026643 52.544,11.472 C51.9253302,11.9413357 51.1466714,12.176 50.208,12.176 C49.5466634,12.176 48.9733358,12.0693344 48.488,11.856 C48.0026642,11.6426656 47.5946683,11.3440019 47.264,10.96 C46.9333317,10.5759981 46.6853342,10.117336 46.52,9.584 C46.3546658,9.050664 46.2613334,8.46933648 46.24,7.84 C46.24,7.21066352 46.335999,6.63466928 46.528,6.112 C46.720001,5.58933072 46.9893316,5.13600192 47.336,4.752 C47.6826684,4.36799808 48.093331,4.0693344 48.568,3.856 C49.042669,3.6426656 49.5626638,3.536 50.128,3.536 C50.8640037,3.536 51.4746642,3.68799848 51.96,3.992 C52.4453358,4.29600152 52.8346652,4.68266432 53.128,5.152 C53.4213348,5.62133568 53.6239994,6.13333056 53.736,6.688 C53.8480006,7.24266944 53.8933334,7.77066416 53.872,8.272 L47.68,8.272 C47.6693333,8.63466848 47.7119995,8.97866504 47.808,9.304 C47.9040005,9.62933496 48.0586656,9.91733208 48.272,10.168 C48.4853344,10.4186679 48.7573317,10.6186659 49.088,10.768 C49.4186683,10.9173341 49.8079978,10.992 50.256,10.992 C50.8320029,10.992 51.3039982,10.858668 51.672,10.592 C52.0400018,10.325332 52.2826661,9.92000272 52.4,9.376 L53.744,9.376 Z M59.776,3.728 L61.136,3.728 L61.136,4.848 L61.168,4.848 C61.3920011,4.38933104 61.7439976,4.05600104 62.224,3.848 C62.7040024,3.63999896 63.2319971,3.536 63.808,3.536 C64.4480032,3.536 65.005331,3.65333216 65.48,3.888 C65.954669,4.12266784 66.3493318,4.439998 66.664,4.84 C66.9786682,5.240002 67.2159992,5.70133072 67.376,6.224 C67.5360008,6.74666928 67.616,7.3013304 67.616,7.888 C67.616,8.4746696 67.5386674,9.02933072 67.384,9.552 C67.2293326,10.0746693 66.9946682,10.5306647 66.68,10.92 C66.3653318,11.3093353 65.970669,11.6159989 65.496,11.84 C65.021331,12.0640011 64.4693365,12.176 63.84,12.176 C63.6373323,12.176 63.4106679,12.1546669 63.16,12.112 C62.9093321,12.0693331 62.6613346,12.0000005 62.416,11.904 C62.1706654,11.8079995 61.9386678,11.6773342 61.72,11.512 C61.5013322,11.3466658 61.3173341,11.1413346 61.168,10.896 L61.136,10.896 L61.136,15.152 L59.776,15.152 L59.776,3.728 Z M66.176,7.792 C66.176,7.40799808 66.1253338,7.03200184 66.024,6.664 C65.9226662,6.29599816 65.768001,5.96800144 65.56,5.68 C65.351999,5.39199856 65.085335,5.16266752 64.76,4.992 C64.434665,4.82133248 64.0533355,4.736 63.616,4.736 C63.157331,4.736 62.7680016,4.82666576 62.448,5.008 C62.1279984,5.18933424 61.8666677,5.4266652 61.664,5.72 C61.4613323,6.0133348 61.3146671,6.3466648 61.224,6.72 C61.1333329,7.0933352 61.088,7.47199808 61.088,7.856 C61.088,8.26133536 61.1359995,8.65333144 61.232,9.032 C61.3280005,9.41066856 61.479999,9.74399856 61.688,10.032 C61.896001,10.3200014 62.1653317,10.5519991 62.496,10.728 C62.8266683,10.9040009 63.2266643,10.992 63.696,10.992 C64.1653357,10.992 64.5573318,10.9013342 64.872,10.72 C65.1866682,10.5386658 65.439999,10.2986682 65.632,10 C65.824001,9.70133184 65.9626662,9.36000192 66.048,8.976 C66.1333338,8.59199808 66.176,8.19733536 66.176,7.792 Z M69.296,0.576 L69.296,12 L70.656,12 L70.656,0.576 L69.296,0.576 Z M80.096,11.968 C79.8613322,12.1066674 79.5360021,12.176 79.12,12.176 C78.7679982,12.176 78.488001,12.0773343 78.28,11.88 C78.071999,11.6826657 77.968,11.3600022 77.968,10.912 C77.5946648,11.3600022 77.1600025,11.6826657 76.664,11.88 C76.1679975,12.0773343 75.6320029,12.176 75.056,12.176 C74.6826648,12.176 74.3280017,12.1333338 73.992,12.048 C73.6559983,11.9626662 73.3653346,11.8293342 73.12,11.648 C72.8746654,11.4666658 72.6800007,11.2293348 72.536,10.936 C72.3919993,10.6426652 72.32,10.2880021 72.32,9.872 C72.32,9.40266432 72.3999992,9.01866816 72.56,8.72 C72.7200008,8.42133184 72.9306654,8.1786676 73.192,7.992 C73.4533346,7.8053324 73.7519983,7.66400048 74.088,7.568 C74.4240017,7.47199952 74.7679982,7.39200032 75.12,7.328 C75.4933352,7.25333296 75.8479983,7.19733352 76.184,7.16 C76.5200017,7.12266648 76.8159987,7.06933368 77.072,7 C77.3280013,6.93066632 77.5306659,6.829334 77.68,6.696 C77.8293341,6.562666 77.904,6.36800128 77.904,6.112 C77.904,5.81333184 77.8480006,5.57333424 77.736,5.392 C77.6239994,5.21066576 77.4800009,5.07200048 77.304,4.976 C77.1279991,4.87999952 76.9306678,4.81600016 76.712,4.784 C76.4933322,4.75199984 76.2773344,4.736 76.064,4.736 C75.4879971,4.736 75.0080019,4.84533224 74.624,5.064 C74.2399981,5.28266776 74.0320002,5.69599696 74,6.304 L72.64,6.304 C72.6613334,5.79199744 72.767999,5.36000176 72.96,5.008 C73.152001,4.65599824 73.4079984,4.37066776 73.728,4.152 C74.0480016,3.93333224 74.4133313,3.77600048 74.824,3.68 C75.2346687,3.58399952 75.6746643,3.536 76.144,3.536 C76.5173352,3.536 76.8879982,3.5626664 77.256,3.616 C77.6240018,3.6693336 77.9573318,3.77866584 78.256,3.944 C78.5546682,4.10933416 78.7946658,4.34133184 78.976,4.64 C79.1573342,4.93866816 79.248,5.3279976 79.248,5.808 L79.248,10.064 C79.248,10.3840016 79.2666665,10.6186659 79.304,10.768 C79.3413335,10.9173341 79.4666656,10.992 79.68,10.992 C79.7973339,10.992 79.9359992,10.9653336 80.096,10.912 L80.096,11.968 Z M77.888,7.728 C77.7173325,7.85600064 77.4933347,7.94933304 77.216,8.008 C76.9386653,8.06666696 76.6480015,8.11466648 76.344,8.152 C76.0399985,8.18933352 75.7333349,8.23199976 75.424,8.28 C75.1146651,8.32800024 74.8373346,8.4053328 74.592,8.512 C74.3466654,8.6186672 74.1466674,8.77066568 73.992,8.968 C73.8373326,9.16533432 73.76,9.43466496 73.76,9.776 C73.76,10.0000011 73.8053329,10.1893326 73.896,10.344 C73.9866671,10.4986674 74.1039993,10.6239995 74.248,10.72 C74.3920007,10.8160005 74.559999,10.8853331 74.752,10.928 C74.944001,10.9706669 75.1466656,10.992 75.36,10.992 C75.8080022,10.992 76.1919984,10.9306673 76.512,10.808 C76.8320016,10.6853327 77.0933323,10.5306676 77.296,10.344 C77.4986677,10.1573324 77.6479995,9.95466776 77.744,9.736 C77.8400005,9.51733224 77.888,9.31200096 77.888,9.12 L77.888,7.728 Z M83.248,3.728 L83.248,1.248 L81.888,1.248 L81.888,3.728 L80.48,3.728 L80.48,4.928 L81.888,4.928 L81.888,10.192 C81.888,10.5760019 81.925333,10.8853322 82,11.12 C82.074667,11.3546678 82.1893326,11.5359994 82.344,11.664 C82.4986674,11.7920006 82.7013321,11.8799998 82.952,11.928 C83.2026679,11.9760002 83.5039982,12 83.856,12 L84.896,12 L84.896,10.8 L84.272,10.8 C84.0586656,10.8 83.885334,10.7920001 83.752,10.776 C83.618666,10.7599999 83.514667,10.7253336 83.44,10.672 C83.365333,10.6186664 83.3146668,10.5440005 83.288,10.448 C83.2613332,10.3519995 83.248,10.2240008 83.248,10.064 L83.248,4.928 L84.896,4.928 L84.896,3.728 L83.248,3.728 Z M86.96,4.928 L86.96,12 L88.32,12 L88.32,4.928 L89.92,4.928 L89.92,3.728 L88.32,3.728 L88.32,2.576 C88.32,2.21333152 88.4106658,1.96800064 88.592,1.84 C88.7733342,1.71199936 89.0293317,1.648 89.36,1.648 C89.4773339,1.648 89.6053326,1.65599992 89.744,1.672 C89.8826674,1.68800008 90.0106661,1.71733312 90.128,1.76 L90.128,0.576 C89.9999994,0.53333312 89.8533342,0.50133344 89.688,0.48 C89.5226658,0.45866656 89.3760006,0.448 89.248,0.448 C88.5013296,0.448 87.9333353,0.6213316 87.544,0.968 C87.1546647,1.3146684 86.96,1.82399664 86.96,2.496 L86.96,3.728 L85.568,3.728 L85.568,4.928 L86.96,4.928 Z M92.128,7.872 C92.128,8.37333584 92.194666,8.81866472 92.328,9.208 C92.461334,9.59733528 92.6453322,9.92266536 92.88,10.184 C93.1146678,10.4453346 93.3893318,10.6453326 93.704,10.784 C94.0186682,10.9226674 94.3519982,10.992 94.704,10.992 C95.0560018,10.992 95.3893318,10.9226674 95.704,10.784 C96.0186682,10.6453326 96.2933322,10.4453346 96.528,10.184 C96.7626678,9.92266536 96.946666,9.59733528 97.08,9.208 C97.213334,8.81866472 97.28,8.37333584 97.28,7.872 C97.28,7.37066416 97.213334,6.92533528 97.08,6.536 C96.946666,6.14666472 96.7626678,5.818668 96.528,5.552 C96.2933322,5.285332 96.0186682,5.08266736 95.704,4.944 C95.3893318,4.80533264 95.0560018,4.736 94.704,4.736 C94.3519982,4.736 94.0186682,4.80533264 93.704,4.944 C93.3893318,5.08266736 93.1146678,5.285332 92.88,5.552 C92.6453322,5.818668 92.461334,6.14666472 92.328,6.536 C92.194666,6.92533528 92.128,7.37066416 92.128,7.872 Z M90.688,7.872 C90.688,7.26399696 90.7733325,6.69600264 90.944,6.168 C91.1146675,5.63999736 91.370665,5.18133528 91.712,4.792 C92.053335,4.40266472 92.4746642,4.09600112 92.976,3.872 C93.4773358,3.64799888 94.0533301,3.536 94.704,3.536 C95.3653366,3.536 95.9439975,3.64799888 96.44,3.872 C96.9360025,4.09600112 97.354665,4.40266472 97.696,4.792 C98.037335,5.18133528 98.2933325,5.63999736 98.464,6.168 C98.6346675,6.69600264 98.72,7.26399696 98.72,7.872 C98.72,8.48000304 98.6346675,9.04533072 98.464,9.568 C98.2933325,10.0906693 98.037335,10.5466647 97.696,10.936 C97.354665,11.3253353 96.9360025,11.6293322 96.44,11.848 C95.9439975,12.0666678 95.3653366,12.176 94.704,12.176 C94.0533301,12.176 93.4773358,12.0666678 92.976,11.848 C92.4746642,11.6293322 92.053335,11.3253353 91.712,10.936 C91.370665,10.5466647 91.1146675,10.0906693 90.944,9.568 C90.7733325,9.04533072 90.688,8.48000304 90.688,7.872 Z M100.272,3.728 L100.272,12 L101.632,12 L101.632,8.32 C101.632,7.786664 101.685333,7.31466872 101.792,6.904 C101.898667,6.49333128 102.069332,6.14400144 102.304,5.856 C102.538668,5.56799856 102.847998,5.34933408 103.232,5.2 C103.616002,5.05066592 104.079997,4.976 104.624,4.976 L104.624,3.536 C103.887996,3.51466656 103.280002,3.6639984 102.8,3.984 C102.319998,4.3040016 101.914668,4.79999664 101.584,5.472 L101.552,5.472 L101.552,3.728 L100.272,3.728 Z M105.648,3.728 L105.648,12 L107.008,12 L107.008,6.848 C107.008,6.6879992 107.048,6.4880012 107.128,6.248 C107.208,6.0079988 107.335999,5.77600112 107.512,5.552 C107.688001,5.32799888 107.917332,5.1360008 108.2,4.976 C108.482668,4.8159992 108.821331,4.736 109.216,4.736 C109.525335,4.736 109.778666,4.78133288 109.976,4.872 C110.173334,4.96266712 110.330666,5.09066584 110.448,5.256 C110.565334,5.42133416 110.648,5.61599888 110.696,5.84 C110.744,6.06400112 110.768,6.309332 110.768,6.576 L110.768,12 L112.128,12 L112.128,6.848 C112.128,6.2079968 112.319998,5.69600192 112.704,5.312 C113.088002,4.92799808 113.615997,4.736 114.288,4.736 C114.618668,4.736 114.887999,4.78399952 115.096,4.88 C115.304001,4.97600048 115.466666,5.10666584 115.584,5.272 C115.701334,5.43733416 115.781333,5.63199888 115.824,5.856 C115.866667,6.08000112 115.888,6.31999872 115.888,6.576 L115.888,12 L117.248,12 L117.248,5.936 C117.248,5.5093312 117.181334,5.14400152 117.048,4.84 C116.914666,4.53599848 116.728001,4.28800096 116.488,4.096 C116.247999,3.90399904 115.960002,3.76266712 115.624,3.672 C115.287998,3.58133288 114.912002,3.536 114.496,3.536 C113.951997,3.536 113.453336,3.65866544 113,3.904 C112.546664,4.14933456 112.181335,4.49599776 111.904,4.944 C111.733332,4.43199744 111.440002,4.0693344 111.024,3.856 C110.607998,3.6426656 110.144003,3.536 109.632,3.536 C108.469328,3.536 107.57867,4.00532864 106.96,4.944 L106.928,4.944 L106.928,3.728 L105.648,3.728 Z" id="See-the-platform"></path>
                        <polygon id="Rectangle" fill-rule="nonzero" points="40.219318 37.5294193 38.8051045 37.5294193 58.3345238 57.0588386 77.8639431 37.5294193 76.4497295 37.5294193 58.3345238 55.644625"></polygon>
                    </g>
                </g>
            </g>
        </g>
    </g>
</svg>